HIERARCHY
ROOT hip
{
  OFFSET 0 0 0
  CHANNELS 6 Xposition Yposition Zposition Zrotation Yrotation Xrotation
  JOINT abdomen
  {
    OFFSET 0 20.6881 -0.73152
    CHANNELS 3 Zrotation Xrotation Yrotation
    JOINT chest
    {
      OFFSET 0 11.7043 -0.48768
      CHANNELS 3 Zrotation Xrotation Yrotation
      JOINT neck
      {
        OFFSET 0 22.1894 -2.19456
        CHANNELS 3 Zrotation Xrotation Yrotation
        JOINT head
        {
          OFFSET -0.24384 7.07133 1.2192
          CHANNELS 3 Zrotation Xrotation Yrotation
          JOINT leftEye
          {
            OFFSET 4.14528 8.04674 8.04672
            CHANNELS 3 Zrotation Xrotation Yrotation
            End Site
            {
              OFFSET 1 0 0
            }
          }
          JOINT rightEye
          {
            OFFSET -3.6576 8.04674 8.04672
            CHANNELS 3 Zrotation Xrotation Yrotation
            End Site
            {
              OFFSET 1 0 0
            }
          }
        }
      }
      JOINT rCollar
      {
        OFFSET -2.68224 19.2634 -4.8768
        CHANNELS 3 Zrotation Xrotation Yrotation
        JOINT rShldr
        {
          OFFSET -8.77824 -1.95073 1.46304
          CHANNELS 3 Zrotation Xrotation Yrotation
          JOINT rForeArm
          {
            OFFSET -28.1742 -1.7115 0.48768
            CHANNELS 3 Zrotation Xrotation Yrotation
            JOINT rHand
            {
              OFFSET -22.5879 0.773209 7.07136
              CHANNELS 3 Zrotation Xrotation Yrotation
              JOINT rThumb1
              {
                OFFSET -1.2192 -0.487915 3.41376
                CHANNELS 3 Zrotation Xrotation Yrotation
                JOINT rThumb2
                {
                  OFFSET -3.37035 -0.52449 3.41376
                  CHANNELS 3 Zrotation Xrotation Yrotation
                  End Site
                  {
                    OFFSET -1.78271 -1.18214 1.43049
                  }
                }
              }
              JOINT rIndex1
              {
                OFFSET -7.75947 0.938293 5.60832
                CHANNELS 3 Zrotation Xrotation Yrotation
                JOINT rIndex2
                {
                  OFFSET -2.54057 -0.884171 1.56538
                  CHANNELS 3 Zrotation Xrotation Yrotation
                  End Site
                  {
                    OFFSET -1.62519 -0.234802 1.16502
                  }
                }
              }
              JOINT rMid1
              {
                OFFSET -8.24714 1.18213 3.41376
                CHANNELS 3 Zrotation Xrotation Yrotation
                JOINT rMid2
                {
                  OFFSET -3.10165 -0.590103 1.0647
                  CHANNELS 3 Zrotation Xrotation Yrotation
                  End Site
                  {
                    OFFSET -2.48547 -0.328903 0.83742
                  }
                }
              }
              JOINT rRing1
              {
                OFFSET -8.82822 0.546677 1.51678
                CHANNELS 3 Zrotation Xrotation Yrotation
                JOINT rRing2
                {
                  OFFSET -2.60934 -0.819778 -0.0198488
                  CHANNELS 3 Zrotation Xrotation Yrotation
                  End Site
                  {
                    OFFSET -2.33842 -0.294052 0.168128
                  }
                }
              }
              JOINT rPinky1
              {
                OFFSET -8.27202 -0.0477905 -0.4584
                CHANNELS 3 Zrotation Xrotation Yrotation
                JOINT rPinky2
                {
                  OFFSET -1.82734 -0.647385 -0.700984
                  CHANNELS 3 Zrotation Xrotation Yrotation
                  End Site
                  {
                    OFFSET -1.69225 -0.51767 -0.607171
                  }
                }
              }
            }
          }
        }
      }
      JOINT lCollar
      {
        OFFSET 2.68224 19.2634 -4.8768
        CHANNELS 3 Zrotation Xrotation Yrotation
        JOINT lShldr
        {
          OFFSET 8.77824 -1.95073 1.46304
          CHANNELS 3 Zrotation Xrotation Yrotation
          JOINT lForeArm
          {
            OFFSET 28.1742 -1.7115 0.48768
            CHANNELS 3 Zrotation Xrotation Yrotation
            JOINT lHand
            {
              OFFSET 22.5879 0.773209 7.07136
              CHANNELS 3 Zrotation Xrotation Yrotation
              JOINT lThumb1
              {
                OFFSET 1.2192 -0.487915 3.41376
                CHANNELS 3 Zrotation Xrotation Yrotation
                JOINT lThumb2
                {
                  OFFSET 3.37035 -0.52449 3.41376
                  CHANNELS 3 Zrotation Xrotation Yrotation
                  End Site
                  {
                    OFFSET 1.78271 -1.18214 1.43049
                  }
                }
              }
              JOINT lIndex1
              {
                OFFSET 7.75947 0.938293 5.60832
                CHANNELS 3 Zrotation Xrotation Yrotation
                JOINT lIndex2
                {
                  OFFSET 2.54057 -0.884171 1.56538
                  CHANNELS 3 Zrotation Xrotation Yrotation
                  End Site
                  {
                    OFFSET 1.62519 -0.234802 1.16502
                  }
                }
              }
              JOINT lMid1
              {
                OFFSET 8.24714 1.18213 3.41376
                CHANNELS 3 Zrotation Xrotation Yrotation
                JOINT lMid2
                {
                  OFFSET 3.10165 -0.590103 1.0647
                  CHANNELS 3 Zrotation Xrotation Yrotation
                  End Site
                  {
                    OFFSET 2.48547 -0.328903 0.83742
                  }
                }
              }
              JOINT lRing1
              {
                OFFSET 8.82822 0.546677 1.51678
                CHANNELS 3 Zrotation Xrotation Yrotation
                JOINT lRing2
                {
                  OFFSET 2.60934 -0.819778 -0.0198488
                  CHANNELS 3 Zrotation Xrotation Yrotation
                  End Site
                  {
                    OFFSET 2.33842 -0.294052 0.168128
                  }
                }
              }
              JOINT lPinky1
              {
                OFFSET 8.27202 -0.0477905 -0.4584
                CHANNELS 3 Zrotation Xrotation Yrotation
                JOINT lPinky2
                {
                  OFFSET 1.82734 -0.647385 -0.700984
                  CHANNELS 3 Zrotation Xrotation Yrotation
                  End Site
                  {
                    OFFSET 1.69225 -0.51767 -0.607171
                  }
                }
              }
            }
          }
        }
      }
    }
  }
  JOINT rButtock
  {
    OFFSET -8.77824 4.35084 1.2192
    CHANNELS 3 Zrotation Xrotation Yrotation
    JOINT rThigh
    {
      OFFSET 0 -1.70687 -2.19456
      CHANNELS 3 Zrotation Xrotation Yrotation
      JOINT rShin
      {
        OFFSET 0 -36.8199 0.73152
        CHANNELS 3 Zrotation Xrotation Yrotation
        JOINT rFoot
        {
          OFFSET 0.73152 -45.1104 -5.12064
          CHANNELS 3 Zrotation Xrotation Yrotation
          End Site
          {
            OFFSET -1.1221 -3.69964 12.103
          }
        }
      }
    }
  }
  JOINT lButtock
  {
    OFFSET 8.77824 4.35084 1.2192
    CHANNELS 3 Zrotation Xrotation Yrotation
    JOINT lThigh
    {
      OFFSET 0 -1.70687 -2.19456
      CHANNELS 3 Zrotation Xrotation Yrotation
      JOINT lShin
      {
        OFFSET 0 -36.8199 0.73152
        CHANNELS 3 Zrotation Xrotation Yrotation
        JOINT lFoot
        {
          OFFSET -0.73152 -45.1104 -5.12064
          CHANNELS 3 Zrotation Xrotation Yrotation
          End Site
          {
            OFFSET 1.1221 -3.69964 12.103
          }
        }
      }
    }
  }
}
MOTION
Frames:	4
Frame Time:	0.03333
4.428400175130667 63.068996909035604 -36.25430019381683 118.66498565673828 81.00920104980469 119.47698211669922 -8.65779972076416 25.6007022857666 14.551498413085938 -7.248579502105713 -9.541409492492676 2.983639717102051 0.36399897933006287 14.341300010681152 13.374698638916016 -5.092120170593262 -24.71360206604004 25.390398025512695 -0.0 0.0 -0.0 -0.0 0.0 -0.0 -2.5042801491369227e-13 -8.837919003405748e-13 -1.4933699079861668e-13 27.785694122314453 64.41819763183594 32.3452033996582 -27.677902221679688 -41.85740280151367 87.31959533691406 -0.10732398927211761 9.302460670471191 1.3191001415252686 -3.1132798561372965e-09 1.6325300222774786e-08 2.320049929949164e-09 -5.366050270794176e-09 2.8224098613804927e-08 4.037689738112249e-09 -3.113269864130075e-09 1.6325300222774786e-08 2.3200399379419423e-09 7.730909824371338 5.474879741668701 0.4173140823841095 -3.1132798561372965e-09 1.6325300222774786e-08 2.320049929949164e-09 2.9055399894714355 0.9651829600334167 0.10290199518203735 -3.113269864130075e-09 1.6325300222774786e-08 2.320049929949164e-09 10.27859878540039 0.73180091381073 0.025912316516041756 -3.113290070189123e-09 1.6325300222774786e-08 2.3200599219563856e-09 2.221669912338257 -0.733487069606781 -0.208919957280159 -2.5052599968503064e-13 -8.83800953428715e-13 -1.4958498849304558e-13 -61.12810134887695 10.758999824523926 -1.0137391090393066 27.17040252685547 -43.541908264160156 -90.54129791259766 2.0991601943969727 -37.469608306884766 6.184030055999756 -1.772489793827603e-10 -4.128769826028389e-10 -5.796849666950266e-10 -3.014190008698847e-10 -6.880779834794737e-10 -9.8662289449436e-10 -1.772519908627146e-10 -4.1286801755191505e-10 -5.796779722899714e-10 -7.730909824371338 5.474879741668701 -0.4173140823841095 -1.7724499645765945e-10 -4.128609676357087e-10 -5.79687964297193e-10 -2.9055399894714355 0.9651829600334167 -0.10290199518203735 -1.7725400314194673e-10 -4.128719865992281e-10 -5.796860214069e-10 -10.27859878540039 0.73180091381073 -0.025912316516041756 -1.7724299805621513e-10 -4.128599684349865e-10 -5.796940150126773e-10 -2.221669912338257 -0.733487069606781 0.208919957280159 -2.0321699480147914e-16 0.0 -3.8825099822884138e-19 -40.34469985961914 -38.079097747802734 -31.799501419067383 -4.408949851989746 79.50700378417969 5.485190391540527 -8.346990585327148 -19.97439956665039 -17.30550193786621 2.0321699480147914e-16 0.0 3.8825099822884138e-19 36.0491943359375 -39.707496643066406 11.27499771118164 0.5669900178909302 54.881195068359375 -2.0624899864196777 2.3570897579193115 21.753305435180664 -12.043498992919922
4.426800175178079 62.082499026832316 -37.43650017793561 118.7349853515625 81.72791290283203 119.92398834228516 -8.207260131835938 24.431201934814453 14.40989875793457 -6.791450023651123 -9.604480743408203 3.0050604343414307 0.3721889853477478 14.396899223327637 13.49630069732666 -5.005959987640381 -24.66339874267578 25.648700714111328 -0.0 0.0 -0.0 -0.0 0.0 -0.0 -3.7466096848223773e-13 -1.2510799687892593e-12 -7.344159866839658e-14 28.986900329589844 64.70429229736328 31.068998336791992 -27.632095336914062 -42.033203125 87.64789581298828 -0.09592608362436295 8.814769744873047 1.2487499713897705 -4.030439981761447e-09 2.3003197568982614e-08 4.475349868471312e-09 -6.945149344517176e-09 3.976279572270869e-08 7.771419952007363e-09 -4.0304199977470034e-09 2.3003197568982614e-08 4.475339654419486e-09 7.730909824371338 5.474879741668701 0.4173140823841095 -4.030439981761447e-09 2.3003197568982614e-08 4.475360082523139e-09 2.9055399894714355 0.9651829600334167 0.10290199518203735 -4.0304199977470034e-09 2.3003098092999608e-08 4.475349868471312e-09 10.27859878540039 0.73180091381073 0.025912316516041756 -4.030449751724063e-09 2.3003197568982614e-08 4.475360082523139e-09 2.221669912338257 -0.733487069606781 -0.208919957280159 -3.747790109937671e-13 -1.2511000265294503e-12 -7.365279447533318e-14 -60.98209762573242 10.57590103149414 -0.965587317943573 27.133895874023438 -43.647300720214844 -90.74658966064453 2.044689893722534 -37.06269836425781 6.093550205230713 -2.6500199812318215e-09 -2.3675100768727475e-10 -2.1003101480232544e-09 -4.533640129977812e-09 -5.059699881293511e-10 -3.6739897790738496e-09 -2.6500199812318215e-09 -2.36743985526644e-10 -2.100299933971428e-09 -7.730909824371338 5.474879741668701 -0.4173140823841095 -2.650009767179995e-09 -2.367410156800531e-10 -2.1003101480232544e-09 -2.9055399894714355 0.9651829600334167 -0.10290199518203735 -2.6500199812318215e-09 -2.3674798232953265e-10 -2.1003101480232544e-09 -10.27859878540039 0.73180091381073 -0.025912316516041756 -2.650009767179995e-09 -2.367410156800531e-10 -2.100319917985871e-09 -2.221669912338257 -0.733487069606781 0.208919957280159 -2.0321699480147914e-16 0.0 -3.8825099822884138e-19 -41.66809844970703 -38.85429763793945 -32.26869583129883 -5.013040065765381 80.62342071533203 6.1422200202941895 -8.06624984741211 -20.220903396606445 -16.684099197387695 2.0321699480147914e-16 0.0 3.8825099822884138e-19 35.0857048034668 -38.306697845458984 10.3641996383667 0.5925279855728149 54.71520233154297 -1.930069923400879 0.10713399946689606 14.357401847839355 -7.930790424346924
4.42940017523131 61.22959964479449 -38.566200126442496 122.06200408935547 82.29742431640625 123.73798370361328 -7.538000106811523 23.341100692749023 14.168001174926758 -6.318609714508057 -9.681011199951172 3.011969804763794 0.3609979748725891 14.473301887512207 13.57710075378418 -4.884059906005859 -24.7218017578125 25.832202911376953 -0.0 0.0 -0.0 -0.0 0.0 -0.0 -4.2689698889590566e-13 -1.367629967607975e-12 5.729969856883496e-14 30.25289535522461 64.92901611328125 29.719205856323242 -27.582595825195312 -42.214603424072266 87.9906005859375 -0.08393719047307968 8.236680030822754 1.1657098531723022 -3.865479936138172e-09 2.3880598831738098e-08 5.642240008540966e-09 -6.6595600145547e-09 4.1275200146628777e-08 9.7874295335032e-09 -3.865459952123729e-09 2.388049935575509e-08 5.64222979448914e-09 7.730909824371338 5.474879741668701 0.4173140823841095 -3.865479936138172e-09 2.3880598831738098e-08 5.642249778503583e-09 2.9055399894714355 0.9651829600334167 0.10290199518203735 -3.865450182161112e-09 2.388049935575509e-08 5.64222979448914e-09 10.27859878540039 0.73180091381073 0.025912316516041756 -3.865479936138172e-09 2.3880598831738098e-08 5.6422595484662e-09 2.221669912338257 -0.733487069606781 -0.208919957280159 -4.270109927543425e-13 -1.3676499169279488e-12 5.715059366506389e-14 -60.79170227050781 10.477699279785156 -1.1776902675628662 27.10059928894043 -43.74030685424805 -90.93069458007812 2.0400798320770264 -37.03200912475586 6.086409091949463 -4.8235895278025964e-09 1.4341400289552553e-10 -3.2080000877954262e-09 -8.256940020601178e-09 3.395239991932364e-11 -5.646629830380334e-09 -4.8235895278025964e-09 1.4341798582062637e-10 -3.2079898737435997e-09 -7.730909824371338 5.474879741668701 -0.4173140823841095 -4.8235895278025964e-09 1.434150020962477e-10 -3.2080000877954262e-09 -2.9055399894714355 0.9651829600334167 -0.10290199518203735 -4.823599741854423e-09 1.4341400289552553e-10 -3.2080000877954262e-09 -10.27859878540039 0.73180091381073 -0.025912316516041756 -4.8235895278025964e-09 1.434150020962477e-10 -3.2080000877954262e-09 -2.221669912338257 -0.733487069606781 0.208919957280159 -2.0321699480147914e-16 0.0 -3.8825099822884138e-19 -42.970703125 -39.43709945678711 -32.99209976196289 -5.696009635925293 81.6368179321289 6.894430160522461 -7.869481086730957 -20.39350128173828 -16.302597045898438 2.0321699480147914e-16 0.0 3.8825099822884138e-19 34.86109924316406 -37.75629806518555 10.552397727966309 0.6509029865264893 55.26130294799805 -1.814449667930603 -1.159690022468567 5.915349960327148 -3.85752010345459
4.407300176029494 60.386597206864 -39.666190139442 129.35699462890625 82.88175201416016 131.37298583984375 -6.432360649108887 22.585901260375977 13.84689998626709 -6.0735602378845215 -9.789820671081543 2.9945995807647705 0.41735202074050903 14.522200584411621 13.583401679992676 -4.6173200607299805 -24.736900329589844 25.892797470092773 -0.0 0.0 -0.0 -0.0 0.0 -0.0 -2.4916600358491914e-13 -7.688699937141719e-13 1.7437498656385636e-13 32.03329849243164 65.02750396728516 27.919105529785156 -27.539596557617188 -42.3683967590332 88.28138732910156 -0.07776329666376114 7.92279052734375 1.1207200288772583 -1.3091600026271522e-09 1.0018399443367798e-08 3.0050699706407613e-09 -2.253770059468252e-09 1.7309899291717556e-08 5.207080100433359e-09 -1.309149899597628e-09 1.0018399443367798e-08 3.0050599786335397e-09 7.730909824371338 5.474879741668701 0.4173140823841095 -1.3091699946343738e-09 1.0018399443367798e-08 3.005079962647983e-09 2.9055399894714355 0.9651829600334167 0.10290199518203735 -1.309149899597628e-09 1.0018399443367798e-08 3.0050699706407613e-09 10.27859878540039 0.73180091381073 0.025912316516041756 -1.3091600026271522e-09 1.0018399443367798e-08 3.0050899546552046e-09 2.221669912338257 -0.733487069606781 -0.208919957280159 -2.4926499124326706e-13 -7.688789925922035e-13 1.7423500251086133e-13 -60.41350173950195 10.477899551391602 -1.9077898263931274 27.095699310302734 -43.75230407714844 -90.9563980102539 2.112910032272339 -37.57350158691406 6.207080364227295 -3.336100062867331e-09 5.988609608209572e-10 -1.7726600187728536e-09 -5.719269946524719e-09 8.807279350264707e-10 -3.1416600432265795e-09 -3.336100062867331e-09 5.988640139342749e-10 -1.7726499157433295e-09 -7.730909824371338 5.474879741668701 -0.4173140823841095 -3.336100062867331e-09 5.988590179306641e-10 -1.7726600187728536e-09 -2.9055399894714355 0.9651829600334167 -0.10290199518203735 -3.3361100548745526e-09 5.988590179306641e-10 -1.7726600187728536e-09 -10.27859878540039 0.73180091381073 -0.025912316516041756 -3.336100062867331e-09 5.988590179306641e-10 -1.7726698997577728e-09 -2.221669912338257 -0.733487069606781 0.208919957280159 -2.0321699480147914e-16 0.0 -3.8825099822884138e-19 -43.89289855957031 -39.50970458984375 -34.150699615478516 -6.3375396728515625 82.40448760986328 7.584328651428223 -7.790120601654053 -20.498003005981445 -16.147600173950195 2.0321699480147914e-16 0.0 3.8825099822884138e-19 35.644798278808594 -38.20940399169922 11.46090316772461 0.7085900902748108 56.15800094604492 -1.7934801578521729 -1.325410008430481 0.9321789741516113 -1.2714300155639648
